# xmcd
#
# Track frame offsets: 
#        150
#        9950
#        24673
#        36284
#        49752
#        61082
#        73914
#        85568
#        91503
#        103168
#        115117
#
# Disc length: 1702 seconds
#
# Revision: 3
# Processed by: cddbd v1.5.2PL0 Copyright (c) Steve Scherf et al.
# Submitted via: ExactAudioCopy v0.99pb5
#
DISCID=7e06a40b
DTITLE=Burning Skies - (2008) Greed Filth Abuse Corruption
DYEAR=2008
DGENRE=Deathcore
TTITLE0=Warhate
TTITLE1=You Don't Have To Be Dead To Be In Hell
TTITLE2=Y.G.F.F.
TTITLE3=Rounding Up The Cattle
TTITLE4=Abuse To Confuse
TTITLE5=To Be The Man Who Has To Beat The Man
TTITLE6=Spat Out And Stamped On
TTITLE7=It's Hard To Breathe With A Bag On Your Head
TTITLE8=Slashed, Thrashed And Fucked Up Beyond All Recognition
TTITLE9=Emocalypse
TTITLE10=Sticky Richard
EXTD=
EXTT0=
EXTT1=
EXTT2=
EXTT3=
EXTT4=
EXTT5=
EXTT6=
EXTT7=
EXTT8=
EXTT9=
EXTT10=
PLAYORDER=
